<?xml version="1.0" encoding="UTF-8" standalone="no"?>
<svg
   xmlns:dc="http://purl.org/dc/elements/1.1/"
   xmlns:cc="http://creativecommons.org/ns#"
   xmlns:rdf="http://www.w3.org/1999/02/22-rdf-syntax-ns#"
   xmlns:svg="http://www.w3.org/2000/svg"
   xmlns="http://www.w3.org/2000/svg"
   xmlns:sodipodi="http://sodipodi.sourceforge.net/DTD/sodipodi-0.dtd"
   xmlns:inkscape="http://www.inkscape.org/namespaces/inkscape"
   version="1.1"
   width="32"
   height="32"
   viewBox="0 0 32 32"
   id="svg3424"
   inkscape:version="0.91 r13725"
   sodipodi:docname="calendar.svg">
  <metadata
     id="metadata3432">
    <rdf:RDF>
      <cc:Work
         rdf:about="">
        <dc:format>image/svg+xml</dc:format>
        <dc:type
           rdf:resource="http://purl.org/dc/dcmitype/StillImage" />
        <dc:title></dc:title>
      </cc:Work>
    </rdf:RDF>
  </metadata>
  <defs
     id="defs3430" />
  <sodipodi:namedview
     pagecolor="#ffffff"
     bordercolor="#666666"
     borderopacity="1"
     objecttolerance="10"
     gridtolerance="10"
     guidetolerance="10"
     inkscape:pageopacity="0"
     inkscape:pageshadow="2"
     inkscape:window-width="1494"
     inkscape:window-height="944"
     id="namedview3428"
     showgrid="false"
     inkscape:zoom="27.03125"
     inkscape:cx="17.479769"
     inkscape:cy="-0.27745665"
     inkscape:window-x="0"
     inkscape:window-y="0"
     inkscape:window-maximized="0"
     inkscape:current-layer="svg3424" />
  <path
     d="m 23,8 2,0 c 0.553,0 1,-0.448 1,-1 L 26,1 C 26,0.448 25.553,0 25,0 l -2,0 c -0.553,0 -1,0.448 -1,1 l 0,6 c 0,0.552 0.447,1 1,1 z M 7,8 9,8 C 9.552,8 10,7.552 10,7 L 10,1 C 10,0.448 9.552,0 9,0 L 7,0 C 6.448,0 6,0.448 6,1 l 0,6 c 0,0.552 0.448,1 1,1 z m 23,-4 -2,0 0,5 c 0,0.552 -0.447,1 -1,1 l -6,0 C 20.447,10 20,9.552 20,9 l 0,-5 -8,0 0,5 c 0,0.552 -0.448,1 -1,1 L 5,10 C 4.448,10 4,9.552 4,9 L 4,4 2,4 C 0.896,4 0,4.896 0,6 l 0,24 c 0,1.104 0.896,2 2,2 l 28,0 c 1.104,0 2,-0.896 2,-2 L 32,6 C 32,4.896 31.104,4 30,4 Z m 0,25 c 0,0.553 -0.447,1 -1,1 L 3,30 C 2.448,30 2,29.553 2,29 L 2,13 c 0,-0.552 0.448,-1 1,-1 l 26,0 c 0.553,0 1,0.448 1,1 z"
     id="path3426"
     inkscape:connector-curvature="0"
     style="fill:#444444"
     sodipodi:nodetypes="ssssssssssssssssssscssssccsssscsssssssssssssssss" />
</svg>
